inDegrees=no
num_controls=7
num_derivatives=13
num_iterations=116
num_multipliers=7
num_parameters=0
num_slacks=7
num_states=26
objective=4.842138
objective_accelerations=0.477408
objective_balance=0.015561
objective_effort=0.136076
objective_height=4.116469
objective_ligament=0.096623
solver_duration=1281.715443
status=Solve_Succeeded
success=true
DataType=double
version=3
OpenSimVersion=4.4-2022-07-23-0e9fedc
endheader
time	/jointset/ground_pelvis/pelvis_tilt/value	/jointset/ground_pelvis/pelvis_tx/value	/jointset/ground_pelvis/pelvis_ty/value	/jointset/hip_l/hip_flexion_l/value	/jointset/hip_l/hip_adduction_l/value	/jointset/hip_l/hip_rotation_l/value	/jointset/back/lumbar_extension/value	/jointset/patellofemoral_l/patellar_flexion_l/value	/jointset/knee_l/knee_flexion_l/value	/jointset/knee_l/knee_adduction_l/value	/jointset/knee_l/knee_rotation_l/value	/jointset/ankle_l/ankle_angle_l/value	/jointset/subtalar_l/subtalar_angle_l/value	/jointset/ground_pelvis/pelvis_tilt/speed	/jointset/ground_pelvis/pelvis_tx/speed	/jointset/ground_pelvis/pelvis_ty/speed	/jointset/hip_l/hip_flexion_l/speed	/jointset/hip_l/hip_adduction_l/speed	/jointset/hip_l/hip_rotation_l/speed	/jointset/back/lumbar_extension/speed	/jointset/patellofemoral_l/patellar_flexion_l/speed	/jointset/knee_l/knee_flexion_l/speed	/jointset/knee_l/knee_adduction_l/speed	/jointset/knee_l/knee_rotation_l/speed	/jointset/ankle_l/ankle_angle_l/speed	/jointset/subtalar_l/subtalar_angle_l/speed	/forceset/tau_hip_flexion_l	/forceset/tau_hip_adduction_l	/forceset/tau_hip_rotation_l	/forceset/tau_knee_flexion_l	/forceset/tau_ankle_angle_l	/forceset/tau_subtalar_angle_l	/forceset/tau_lumbar_extension	lambda_cid13_p0	lambda_cid13_p1	lambda_cid13_p2	lambda_cid13_p3	lambda_cid13_p4	lambda_cid13_p5	lambda_cid14_p0	/jointset/ground_pelvis/pelvis_tilt/accel	/jointset/ground_pelvis/pelvis_tx/accel	/jointset/ground_pelvis/pelvis_ty/accel	/jointset/hip_l/hip_flexion_l/accel	/jointset/hip_l/hip_adduction_l/accel	/jointset/hip_l/hip_rotation_l/accel	/jointset/back/lumbar_extension/accel	/jointset/patellofemoral_l/patellar_flexion_l/accel	/jointset/knee_l/knee_flexion_l/accel	/jointset/knee_l/knee_adduction_l/accel	/jointset/knee_l/knee_rotation_l/accel	/jointset/ankle_l/ankle_angle_l/accel	/jointset/subtalar_l/subtalar_angle_l/accel	gamma_cid13_p0	gamma_cid13_p1	gamma_cid13_p2	gamma_cid13_p3	gamma_cid13_p4	gamma_cid13_p5	gamma_cid14_p0
1	-0.3195291756766009	0.0336222933575285	0.6854933450793069	1.315013731873549	-0.363785624341168	0.08345659614094542	-0.4363323095006513	1.275854119861382	1.275854119861365	0.003917301165202811	-0.1745319032289687	0.4351483615128122	0.2221351800860781	-0.1238865058406077	0.005693343932685338	0.02730613700428761	0.02350584955175828	0.005475649579068187	-0.06475000970337788	-9.758810402064117e-05	-0.1429543585766158	-0.1429543585766208	0.0150017966071207	-9.215164780862755e-06	-0.05341251885091398	-0.02078439147957324	-0.1726700086608687	0.03997801933278694	-0.00345050888758644	-0.2656395964037472	-0.04908963909779248	0.02183584911070122	0.1688312994551572	-44.32052766691798	0.4240975648260493	-2.801245871414749	3.782774244290834	-518.1399603507023	-77.22522418257341	-0.02520973478717335	1.250782795584287	0.2308420305870316	1.417326574001474	-5.03733679725312	-0.0434819036311647	-1.44352858830417	-0.02440162224361983	-4.613395997410277	-4.613395997410228	-0.4185836683281176	-0.02160696467475276	-1.208866232975872	-0.7424380582785213	-5.863774694706687e-09	-7.652088196017204e-08	3.567311324493483e-08	2.88551881626959e-09	-7.429255443277395e-09	-6.6191276847008e-08	-7.761679345684939e-09
1.01	-0.3207065481704567	0.03369083901282742	0.685837077792163	1.314998175585089	-0.3637325329142254	0.08273728648389658	-0.4363322592766459	1.274194194752832	1.274194194752826	0.004046940307538353	-0.1745319501762033	0.4345539605607673	0.2218911835270536	-0.1116147544438483	0.008027263608221742	0.04143465845985236	-0.02660029569734198	0.005144691664437558	-0.07910963834305561	0.0002427136698611154	-0.189039231220756	-0.1890392312207557	0.01092405224462307	-1.220124292394368e-06	-0.06546528808990898	-0.02800465790506038	-0.1737252535795688	0.0402857985327101	-0.003518753316167515	-0.264227180260578	-0.05013411802394742	0.02183497599420422	0.1696203210495378	-44.65074686262694	0.4318305236716913	-2.744835239324096	3.833191745627047	-518.3015146872509	-76.99195647409556	-0.02521927989323768	1.211357638197644	0.2363890242757874	1.409750346140813	-4.994731366358111	-0.02759747351878354	-1.431850482180969	0.08350817687041311	-4.607316009400304	-4.607316009399547	-0.4026795350650063	0.0118489752105725	-1.203130435740174	-0.710271561662098	-8.148311884708496e-09	-9.664522431701608e-08	4.484495154797177e-08	3.078191538539509e-09	-1.254404961283075e-08	-7.744277803837721e-08	-1.048074048652204e-08
1.02	-0.3217620058850478	0.03378306828252946	0.6863219228025356	1.314482062248598	-0.3636826900140591	0.0818744464443798	-0.4363247536142691	1.272073164295544	1.27207316429556	0.00413574006328425	-0.1745319479257012	0.4338391022830553	0.2215752941783792	-0.09950354998806386	0.01043006681331082	0.05552859650764479	-0.0766055600512386	0.004825944224209083	-0.09345608619799184	0.001393499430369511	-0.2351754283242752	-0.2351754283242697	0.006833919287952976	6.243881939167693e-07	-0.07750398398405867	-0.03516294940967849	-0.1747804984984143	0.04059357773265557	-0.003586997744697161	-0.2628147641174088	-0.0511785969500768	0.02183410287775718	0.1704093426437758	-44.98760449721245	0.4402774036343355	-2.688026327851947	3.885487865431136	-518.5954796463208	-76.75968346022398	-0.02522834777576949	1.218673407389265	0.2446187364975811	1.410409892447009	-5.017160618212396	-0.04103980875072838	-1.440892431355877	0.1376951750800857	-4.623660889286061	-4.623660889286048	-0.4210613871625941	-0.0228370702751652	-1.206051564006782	-0.7300430741046918	-9.396294513743457e-09	-1.197255545061375e-07	5.367670002282634e-08	9.132254003090574e-10	-1.693306648893901e-08	-9.246368261816516e-08	-1.317694671306395e-08
1.03	-0.3226971754154019	0.03389972178938284	0.6869474713946262	1.313466476089971	-0.363635959381755	0.08086830959244141	-0.4363013805140263	1.269490624631051	1.269490624631027	0.004183547180365307	-0.1745319122542992	0.4330039975301276	0.2211882154695984	-0.0875607350375298	0.01291742182882499	0.06956893830120781	-0.1264859414558086	0.004522453110399316	-0.1077642941983634	0.003449342786924244	-0.2813305670549523	-0.2813305670549471	0.002725432889089222	5.455010146787762e-06	-0.08950793825676751	-0.04223618000467549	-0.1758142061847207	0.04090102033874541	-0.003658150974686828	-0.2611128614622275	-0.05226098653147323	0.02186006386424435	0.171220533710587	-45.31693636351428	0.4230128690349292	-2.612566454745982	3.898658294897893	-518.6774726863364	-76.51990288749786	-0.02523970636966613	1.177529013031972	0.253311706413674	1.399014491934182	-4.969617430410872	-0.02466661427818926	-1.424755956924527	0.264762240316782	-4.611146546130401	-4.611146546130447	-0.4060723635271928	0.01198901409735828	-1.196221284820684	-0.6934559373260466	-1.063370005542161e-08	-1.428360478364047e-07	6.25049781933117e-08	-1.275798277314268e-09	-2.131467747429782e-08	-1.07523050497835e-07	-1.587291972619467e-08
